<?xml version="1.0" encoding="UTF-8"?> <svg xmlns="http://www.w3.org/2000/svg" xmlns:xlink="http://www.w3.org/1999/xlink" version="1.1" id="Layer_1" x="0px" y="0px" viewBox="0 0 117.9 24" style="enable-background:new 0 0 117.9 24;" xml:space="preserve"> <style type="text/css"> .st0{fill:#EE9D38;} .st1{fill:#FFFFFF;} </style> <g> <path class="st0" d="M7,15c4.4,0,6.6-1.4,6.6-5.4S11.4,4.2,7,4.2H4.3V15v3.5v4.8H0.2V0.7h7.2c3.3,0,5.9,0.8,7.7,2.4 s2.8,3.3,2.8,6.4S17,14.3,15.1,16c-1.8,1.6-4.4,2.4-7.7,2.4H7V15z"></path> <path class="st0" d="M19.4,21.8c-1.2-1.2-1.8-2.8-1.8-4.6c0-2.8,1.3-4.8,3.9-6s5.5-1.9,8.7-1.9c0-1.9-0.3-3.3-1-4.1 C28.6,4.3,27.5,4,26,4c-1.9,0-3.9,0.7-6,2l-0.6-3.3c2.1-1.5,4.6-2.3,7.3-2.3s4.6,0.7,5.9,2.1C34,3.8,34.7,6,34.7,9.1v6.5 c0,1.7,0.1,3,0.4,3.7s0.9,1.1,1.8,1.1h0.6l-0.6,3.2h-1c-1.5,0-2.7-0.3-3.4-0.8s-1.3-1.3-1.8-2.5c-0.8,1-1.7,1.8-2.9,2.4 c-1.2,0.6-2.4,0.9-3.7,0.9C22.2,23.6,20.7,23,19.4,21.8z M28,19.5c0.9-0.6,1.6-1.3,2.2-2.2V12c-2.6,0.1-4.6,0.6-5.9,1.3 c-1.3,0.8-2,2-2,3.6c0,2.3,1.1,3.5,3.2,3.5C26.3,20.4,27.1,20.1,28,19.5z"></path> <path class="st1" d="M67.7,22c-1.8-1.1-3.1-2.4-4-4.3c-0.9-1.8-1.3-3.8-1.3-6c0-2.1,0.4-4,1.2-5.7c0.8-1.7,2-3.1,3.6-4.1 s3.4-1.5,5.5-1.5c2.7,0,5,0.8,6.7,2.5s2.6,4,2.6,6.9c0,0.5-0.1,1.2-0.2,2.1h-15c0.1,2.6,0.8,4.6,2.2,6c1.3,1.4,3.1,2,5.3,2 c1,0,2.1-0.1,3.3-0.3c1.2-0.2,2.2-0.6,3-1l0.4,3.5c-1.8,0.9-4.2,1.4-7,1.4C71.6,23.6,69.4,23,67.7,22z M77.6,9.2 c0-1.5-0.4-2.7-1.2-3.7s-2-1.4-3.6-1.4c-1.5,0-2.8,0.4-3.7,1.3s-1.7,2.1-2,3.9L77.6,9.2L77.6,9.2z"></path> <path class="st1" d="M86,20.4c-1.9-2.1-2.9-4.9-2.9-8.3c0-3.5,1-6.3,2.9-8.5s4.9-3.3,8.7-3.3c1.2,0,2.2,0.1,3.2,0.4H98v3.7 c0,0,0,0-0.1,0c-1-0.3-2.1-0.5-3.2-0.5c-2.3,0-4,0.7-5.3,2.1c-1.2,1.4-1.9,3.4-1.9,5.9s0.6,4.5,1.9,6s3.1,2.2,5.4,2.2 c1.1,0,2.1-0.1,3.1-0.4H98v3.6c0,0,0,0-0.1,0s-0.2,0-0.3,0.1c-1,0.2-2,0.3-3,0.3C90.8,23.6,88,22.5,86,20.4z"></path> <path class="st0" d="M38,16.8v-16h4.5v18.4h7.6v4.1h-5.6h-0.1C40.8,23.2,38,20.4,38,16.8L38,16.8L38,16.8z"></path> <path class="st1" d="M60.6,7.2v16.1h-4.5V4.8H45.8V0.7h8.4h0.1C57.7,0.7,60.6,3.6,60.6,7.2L60.6,7.2L60.6,7.2z"></path> <path class="st1" d="M99.8,0.7h4.4v8.9l9,0.1v-9h4.5v22.5h-4.5v-9.8l-9-0.1v9.9h-4.4V0.7z"></path> </g> </svg> 